<svg width="142" height="46" viewBox="0 0 142 46" fill="none" xmlns="http://www.w3.org/2000/svg">
<path d="M0 10.5C0 7.23841 0 5.60761 0.532843 4.32122C1.2433 2.60602 2.60602 1.2433 4.32122 0.532843C5.60761 0 7.23841 0 10.5 0H131.5C134.762 0 136.392 0 137.679 0.532843C139.394 1.2433 140.757 2.60602 141.467 4.32122C142 5.60761 142 7.23841 142 10.5V35.5C142 38.7616 142 40.3924 141.467 41.6788C140.757 43.394 139.394 44.7567 137.679 45.4672C136.392 46 134.762 46 131.5 46H10.5C7.23841 46 5.60761 46 4.32122 45.4672C2.60602 44.7567 1.2433 43.394 0.532843 41.6788C0 40.3924 0 38.7616 0 35.5V10.5Z" fill="#444444"/>
<path d="M96.4722 22.081V24.7157H94.7729V26.4435H96.4722V32.3142C96.4722 34.3189 97.4054 35.1207 99.753 35.1207C100.166 35.1207 100.558 35.073 100.902 35.0157V33.307C100.608 33.3357 100.421 33.3547 100.097 33.3547C99.0458 33.3547 98.5841 32.8774 98.5841 31.7892V26.4435H100.902V24.7157H98.5841V22.081H96.4722Z" fill="white"/>
<path d="M106.883 35.2639C110.006 35.2639 111.922 33.2306 111.922 29.8609C111.922 26.5103 109.996 24.4675 106.883 24.4675C103.759 24.4675 101.834 26.5103 101.834 29.8609C101.834 33.2306 103.749 35.2639 106.883 35.2639ZM106.883 33.4407C105.046 33.4407 104.014 32.1329 104.014 29.8609C104.014 27.6081 105.046 26.2908 106.883 26.2908C108.71 26.2908 109.751 27.6081 109.751 29.8609C109.751 32.1233 108.71 33.4407 106.883 33.4407Z" fill="white"/>
<path d="M113.56 35.0635H115.672V28.9254C115.672 27.4649 116.802 26.4817 118.403 26.4817C118.776 26.4817 119.405 26.5485 119.582 26.6058V24.5821C119.356 24.5248 118.953 24.4961 118.639 24.4961C117.244 24.4961 116.055 25.2407 115.751 26.2621H115.594V24.668H113.56V35.0635Z" fill="white"/>
<path d="M124.825 26.2144C126.387 26.2144 127.409 27.274 127.458 28.9064H122.055C122.173 27.2836 123.264 26.2144 124.825 26.2144ZM127.448 32.257C127.055 33.0684 126.181 33.517 124.904 33.517C123.214 33.517 122.124 32.362 122.055 30.5387V30.4242H129.609V29.7082C129.609 26.4435 127.811 24.4675 124.835 24.4675C121.82 24.4675 119.904 26.5772 119.904 29.8991C119.904 33.2211 121.78 35.2639 124.845 35.2639C127.291 35.2639 129 34.1184 129.481 32.257H127.448Z" fill="white"/>
<path d="M82.623 31.2246C82.7859 33.7772 84.9748 35.4097 88.2326 35.4097C91.7145 35.4097 93.8932 33.6981 93.8932 30.9673C93.8932 28.8203 92.6511 27.633 89.6376 26.9503L88.0188 26.5645C86.1048 26.1291 85.3311 25.5454 85.3311 24.5263C85.3311 23.2401 86.5324 22.3991 88.3345 22.3991C90.0448 22.3991 91.2258 23.2203 91.4396 24.5362H93.659C93.5267 22.1319 91.348 20.4401 88.365 20.4401C85.158 20.4401 83.0201 22.1319 83.0201 24.6747C83.0201 26.7723 84.2316 28.0189 86.8888 28.6224L88.7824 29.0677C90.7269 29.5129 91.5821 30.1659 91.5821 31.2543C91.5821 32.5207 90.2383 33.4408 88.4057 33.4408C86.4408 33.4408 85.0766 32.5801 84.8831 31.2246H82.623Z" fill="white"/>
<path d="M60.7463 24.4961C59.2926 24.4961 58.0353 25.2025 57.387 26.3862H57.2298V24.668H55.1966V38.5191H57.3084V33.4884H57.4754C58.0353 34.5862 59.2435 35.2353 60.766 35.2353C63.4672 35.2353 65.1861 33.1638 65.1861 29.8609C65.1861 26.5581 63.4672 24.4961 60.7463 24.4961ZM60.1471 33.3929C58.3791 33.3929 57.2691 32.0374 57.2691 29.8705C57.2691 27.694 58.3791 26.3385 60.157 26.3385C61.9447 26.3385 63.0153 27.6654 63.0153 29.8609C63.0153 32.066 61.9447 33.3929 60.1471 33.3929Z" fill="white"/>
<path d="M72.5759 24.4961C71.1221 24.4961 69.8648 25.2025 69.2165 26.3862H69.0594V24.668H67.0261V38.5191H69.138V33.4884H69.3049C69.8648 34.5862 71.073 35.2353 72.5955 35.2353C75.2967 35.2353 77.0157 33.1638 77.0157 29.8609C77.0157 26.5581 75.2967 24.4961 72.5759 24.4961ZM71.9767 33.3929C70.2086 33.3929 69.0987 32.0374 69.0987 29.8705C69.0987 27.694 70.2086 26.3385 71.9865 26.3385C73.7742 26.3385 74.8449 27.6654 74.8449 29.8609C74.8449 32.066 73.7742 33.3929 71.9767 33.3929Z" fill="white"/>
<path d="M51.4075 35.0635H53.8306L48.5263 20.7864H46.0728L40.7686 35.0635H43.1101L44.4642 31.274H50.0637L51.4075 35.0635ZM47.1825 23.3786H47.3556L49.4833 29.414H45.0445L47.1825 23.3786Z" fill="white"/>
<path d="M42.1875 10.0176V16.905H44.7463C46.8581 16.905 48.0811 15.6401 48.0811 13.4398C48.0811 11.2729 46.8483 10.0176 44.7463 10.0176H42.1875ZM43.2876 10.9913H44.6235C46.092 10.9913 46.9613 11.8981 46.9613 13.4541C46.9613 15.034 46.1067 15.9313 44.6235 15.9313H43.2876V10.9913Z" fill="white"/>
<path d="M51.8264 17.0052C53.3882 17.0052 54.3459 15.9885 54.3459 14.3037C54.3459 12.6284 53.3833 11.607 51.8264 11.607C50.2646 11.607 49.302 12.6284 49.302 14.3037C49.302 15.9885 50.2597 17.0052 51.8264 17.0052ZM51.8264 16.0936C50.908 16.0936 50.3923 15.4397 50.3923 14.3037C50.3923 13.1773 50.908 12.5186 51.8264 12.5186C52.7399 12.5186 53.2605 13.1773 53.2605 14.3037C53.2605 15.4349 52.7399 16.0936 51.8264 16.0936Z" fill="white"/>
<path d="M62.5016 11.7072H61.4457L60.4929 15.6735H60.4094L59.3093 11.7072H58.2975L57.1974 15.6735H57.1188L56.1611 11.7072H55.0905L56.5638 16.905H57.6492L58.7494 13.0771H58.8329L59.9379 16.905H61.0331L62.5016 11.7072Z" fill="white"/>
<path d="M63.7176 16.905H64.7736V13.8646C64.7736 13.0532 65.2696 12.5473 66.0505 12.5473C66.8314 12.5473 67.2047 12.9625 67.2047 13.7978V16.905H68.2606V13.54C68.2606 12.3038 67.6025 11.607 66.409 11.607C65.6036 11.607 65.0732 11.9554 64.8129 12.5329H64.7343V11.7072H63.7176V16.905Z" fill="white"/>
<path d="M69.9236 16.905H70.9795V9.67871H69.9236V16.905Z" fill="white"/>
<path d="M74.9508 17.0052C76.5125 17.0052 77.4702 15.9885 77.4702 14.3037C77.4702 12.6284 76.5076 11.607 74.9508 11.607C73.389 11.607 72.4263 12.6284 72.4263 14.3037C72.4263 15.9885 73.3841 17.0052 74.9508 17.0052ZM74.9508 16.0936C74.0323 16.0936 73.5167 15.4397 73.5167 14.3037C73.5167 13.1773 74.0323 12.5186 74.9508 12.5186C75.8643 12.5186 76.3849 13.1773 76.3849 14.3037C76.3849 15.4349 75.8643 16.0936 74.9508 16.0936Z" fill="white"/>
<path d="M80.6164 16.127C80.0418 16.127 79.6243 15.8549 79.6243 15.3872C79.6243 14.929 79.9583 14.6855 80.695 14.6378L82.0014 14.5567V14.991C82.0014 15.6354 81.4121 16.127 80.6164 16.127ZM80.3463 16.9909C81.0486 16.9909 81.6331 16.6949 81.9523 16.1747H82.0358V16.905H83.0524V13.3539C83.0524 12.2561 82.2961 11.607 80.9553 11.607C79.7422 11.607 78.8778 12.1797 78.7698 13.0723H79.7913C79.9092 12.7048 80.3168 12.4948 80.9062 12.4948C81.6281 12.4948 82.0014 12.805 82.0014 13.3539V13.8025L80.5526 13.8837C79.2805 13.96 78.5635 14.4994 78.5635 15.4349C78.5635 16.3847 79.3149 16.9909 80.3463 16.9909Z" fill="white"/>
<path d="M86.6357 16.9909C87.3724 16.9909 87.9961 16.652 88.3154 16.084H88.3989V16.905H89.4106V9.67871H88.3547V12.5329H88.2761C87.9863 11.9602 87.3675 11.6213 86.6357 11.6213C85.2851 11.6213 84.4158 12.6618 84.4158 14.3037C84.4158 15.9504 85.2753 16.9909 86.6357 16.9909ZM86.9353 12.5425C87.8193 12.5425 88.3743 13.225 88.3743 14.3085C88.3743 15.3967 87.8242 16.0697 86.9353 16.0697C86.0414 16.0697 85.5061 15.4062 85.5061 14.3037C85.5061 13.2107 86.0464 12.5425 86.9353 12.5425Z" fill="white"/>
<path d="M96.2579 17.0052C97.8197 17.0052 98.7774 15.9885 98.7774 14.3037C98.7774 12.6284 97.8148 11.607 96.2579 11.607C94.6961 11.607 93.7335 12.6284 93.7335 14.3037C93.7335 15.9885 94.6912 17.0052 96.2579 17.0052ZM96.2579 16.0936C95.3395 16.0936 94.8238 15.4397 94.8238 14.3037C94.8238 13.1773 95.3395 12.5186 96.2579 12.5186C97.1714 12.5186 97.692 13.1773 97.692 14.3037C97.692 15.4349 97.1714 16.0936 96.2579 16.0936Z" fill="white"/>
<path d="M100.175 16.905H101.231V13.8646C101.231 13.0532 101.727 12.5473 102.508 12.5473C103.289 12.5473 103.662 12.9625 103.662 13.7978V16.905H104.718V13.54C104.718 12.3038 104.06 11.607 102.867 11.607C102.061 11.607 101.531 11.9554 101.27 12.5329H101.192V11.7072H100.175V16.905Z" fill="white"/>
<path d="M109.581 10.4137V11.7311H108.732V12.595H109.581V15.5303C109.581 16.5327 110.048 16.9336 111.222 16.9336C111.428 16.9336 111.624 16.9097 111.796 16.8811V16.0267C111.649 16.0411 111.556 16.0506 111.394 16.0506C110.868 16.0506 110.637 15.8119 110.637 15.2678V12.595H111.796V11.7311H110.637V10.4137H109.581Z" fill="white"/>
<path d="M113.214 16.905H114.27V13.8694C114.27 13.0818 114.751 12.552 115.615 12.552C116.362 12.552 116.76 12.972 116.76 13.8025V16.905H117.816V13.5496C117.816 12.3134 117.113 11.6118 115.974 11.6118C115.168 11.6118 114.604 11.9602 114.343 12.5425H114.26V9.67871H113.214V16.905Z" fill="white"/>
<path d="M121.625 12.4804C122.406 12.4804 122.916 13.0102 122.941 13.8264H120.24C120.299 13.015 120.844 12.4804 121.625 12.4804ZM122.936 15.5017C122.74 15.9074 122.303 16.1317 121.664 16.1317C120.819 16.1317 120.274 15.5542 120.24 14.6426V14.5853H124.017V14.2273C124.017 12.595 123.118 11.607 121.63 11.607C120.122 11.607 119.164 12.6618 119.164 14.3228C119.164 15.9838 120.102 17.0052 121.635 17.0052C122.857 17.0052 123.712 16.4324 123.953 15.5017H122.936Z" fill="white"/>
<path d="M29.31 23.346C29.3356 21.4128 30.4039 19.5836 32.0986 18.5711C31.0294 17.0872 29.2387 16.1464 27.3757 16.0898C25.3886 15.8871 23.4622 17.2453 22.4496 17.2453C21.4174 17.2453 19.8584 16.1099 18.1795 16.1435C15.9912 16.2122 13.9512 17.4213 12.8866 19.2805C10.598 23.1312 12.3051 28.7904 14.4973 31.903C15.5942 33.4272 16.876 35.1297 18.5534 35.0693C20.1947 35.0031 20.8077 34.0522 22.789 34.0522C24.7518 34.0522 25.327 35.0693 27.0383 35.0309C28.7996 35.0031 29.9092 33.5 30.9676 31.9614C31.7557 30.8754 32.3621 29.6751 32.7644 28.405C30.6946 27.5543 29.3124 25.53 29.31 23.346Z" fill="white"/>
<path d="M26.0775 14.0428C27.0378 12.9224 27.5109 11.4824 27.3963 10.0286C25.9292 10.1783 24.574 10.8598 23.6007 11.9371C22.649 12.9897 22.1537 14.4044 22.2473 15.8027C23.715 15.8174 25.1578 15.1544 26.0775 14.0428Z" fill="white"/>
</svg>
